<svg width="512" height="512" viewBox="0 0 512 512" fill="none" xmlns="http://www.w3.org/2000/svg">
  <!-- Space Background -->
  <circle cx="256" cy="256" r="240" fill="url(#cosmicGradient)"/>
  
  <!-- Star Field -->
  <g opacity="0.3">
    <circle cx="128" cy="128" r="1" fill="white"/>
    <circle cx="384" cy="384" r="1" fill="white"/>
    <circle cx="192" cy="320" r="1" fill="white"/>
    <circle cx="320" cy="192" r="1" fill="white"/>
    <!-- Add more stars -->
  </g>
  
  <!-- Cosmic N -->
  <g filter="url(#cosmicGlow)">
    <!-- Base N -->
    <path d="M160 352V160h48l96 128V160h48v192h-48l-96-128v128h-48z" 
          fill="white" opacity="0.95"/>
    
    <!-- Cosmic Elements -->
    <g opacity="0.9">
      <!-- Nebula Effect -->
      <path d="M256 80c-60-30-120-30-180 0 30-60 90-90 180-90s150 30 180 90c-60-30-120-30-180 0z"
            fill="url(#nebulaGradient)"/>
      
      <!-- Orbital Paths -->
      <circle cx="256" cy="256" r="160" stroke="white" stroke-width="1" opacity="0.2"/>
      <circle cx="256" cy="256" r="120" stroke="white" stroke-width="1" opacity="0.3"/>
      
      <!-- Energy Points -->
      <circle cx="216" cy="120" r="4" fill="white"/>
      <circle cx="256" cy="100" r="4" fill="white"/>
      <circle cx="296" cy="120" r="4" fill="white"/>
    </g>
  </g>

  <defs>
    <linearGradient id="cosmicGradient" x1="0" y1="0" x2="512" y2="512">
      <stop offset="0%" stop-color="#2C3E50"/>
      <stop offset="50%" stop-color="#3498DB"/>
      <stop offset="100%" stop-color="#6B8AFE"/>
    </linearGradient>
    <radialGradient id="nebulaGradient" cx="256" cy="256" r="180">
      <stop offset="0%" stop-color="#FF6B6B" stop-opacity="0.3"/>
      <stop offset="50%" stop-color="#6B8AFE" stop-opacity="0.2"/>
      <stop offset="100%" stop-color="#8BA4FF" stop-opacity="0.1"/>
    </radialGradient>
    <filter id="cosmicGlow">
      <feGaussianBlur stdDeviation="8"/>
      <feDropShadow dx="0" dy="4" stdDeviation="12" flood-opacity="0.3"/>
    </filter>
  </defs>
</svg> 