<svg width="512" height="512" viewBox="0 0 512 512" fill="none" xmlns="http://www.w3.org/2000/svg">
  <!-- Layered Background -->
  <circle cx="256" cy="256" r="240" fill="url(#dynamicGradient)"/>
  <circle cx="256" cy="256" r="220" fill="url(#pulseGlow)" opacity="0.2"/>
  
  <!-- Dynamic N -->
  <g filter="url(#glowShadow)">
    <!-- Base N -->
    <path d="M160 352V160h48l96 128V160h48v192h-48l-96-128v128h-48z" 
          fill="white" opacity="0.95"/>
    
    <!-- Growth Elements -->
    <g opacity="0.9">
      <!-- Spiral Growth -->
      <path d="M256 120c-40-20-80-20-120 0 20-40 60-60 120-60s100 20 120 60c-40-20-80-20-120 0z"
            fill="white"/>
      <path d="M256 80c-20-10-40-10-60 0 10-20 30-30 60-30s50 10 60 30c-20-10-40-10-60 0z"
            fill="white" opacity="0.6"/>
      
      <!-- Energy Lines -->
      <path d="M196 140c20-10 40-10 60 0M256 100v20" 
            stroke="white" stroke-width="4" stroke-linecap="round" opacity="0.8"/>
      <path d="M176 160c40-20 80-20 120 0" 
            stroke="white" stroke-width="2" stroke-linecap="round" stroke-dasharray="4 4"/>
    </g>
  </g>

  <defs>
    <linearGradient id="dynamicGradient" x1="0" y1="0" x2="512" y2="512">
      <stop offset="0%" stop-color="#6B8AFE"/>
      <stop offset="50%" stop-color="#7B97FE"/>
      <stop offset="100%" stop-color="#8BA4FF"/>
    </linearGradient>
    <radialGradient id="pulseGlow" cx="256" cy="256" r="220">
      <stop offset="0%" stop-color="white" stop-opacity="0.3"/>
      <stop offset="100%" stop-color="white" stop-opacity="0"/>
    </radialGradient>
    <filter id="glowShadow">
      <feGaussianBlur stdDeviation="4"/>
      <feDropShadow dx="0" dy="4" stdDeviation="8" flood-opacity="0.2"/>
    </filter>
  </defs>
</svg> 