<svg width="24" height="24" viewBox="0 0 24 24" fill="none" xmlns="http://www.w3.org/2000/svg">
    <path d="M17.05 12.536C17.017 9.46 19.588 8.075 19.72 8C18.347 6.012 16.226 5.75 15.5 5.714C13.702 5.517 11.962 6.808 11.046 6.808C10.112 6.808 8.692 5.734 7.192 5.765C5.266 5.797 3.47 6.892 2.487 8.628C0.449 12.173 1.94 17.342 3.906 20.14C4.882 21.504 6.05 23.039 7.593 22.989C9.097 22.932 9.674 22.024 11.48 22.024C13.268 22.024 13.803 22.989 15.376 22.957C16.988 22.932 17.998 21.575 18.942 20.196C20.079 18.608 20.554 17.053 20.578 16.977C20.538 16.961 17.088 15.692 17.05 12.536Z" fill="white"/>
    <path d="M14.782 4.104C15.596 3.125 16.161 1.771 16.005 0.400024C14.847 0.456024 13.465 1.191 12.624 2.153C11.871 3.008 11.195 4.395 11.375 5.733C12.665 5.837 13.951 5.083 14.782 4.104Z" fill="white"/>
</svg> 